<?xml version="1.0" encoding="UTF-8"?>
<svg width="40" height="40" viewBox="0 0 40 40" fill="none" xmlns="http://www.w3.org/2000/svg">
<g clip-path="url(#clip0_1955_6514)">
<g clip-path="url(#clip1_1955_6514)">
<path fill-rule="evenodd" clip-rule="evenodd" d="M0 -19H40V24.0354C38.3039 24.2781 37 25.7368 37 27.5C37 29.2632 38.3039 30.7219 40 30.9646V45H0V30.9646C1.69615 30.7219 3 29.2632 3 27.5C3 25.7368 1.69615 24.2781 0 24.0354V-19Z" fill="url(#paint0_linear_1955_6514)"/>
</g>
<path d="M31.8636 19.0516C32.0328 17.7996 31.7282 16.7168 31.4742 16.0063C31.2968 15.5072 31.1531 15.1096 31.0259 14.7543C30.4508 13.1386 30.3409 12.8425 29.9432 11.2269L29.8078 10.6939L29.2833 10.5247C27.693 10.0087 27.4139 9.88181 25.8405 9.17971C25.4939 9.02744 25.1045 8.8498 24.6224 8.63833C24.0555 8.39302 23.1927 8.05463 22.1524 8.02079C20.5535 7.96159 19.0225 8.61293 17.5928 9.94949L17.6183 9.94105C17.2544 10.2625 16.8823 10.6347 16.5015 11.0661C16.5015 11.0661 16.5101 11.0915 16.5945 11.0238C17.0939 10.6178 18.7265 9.09512 23.1676 11.0915C25.3498 12.0727 27.4477 12.944 27.4477 12.944C27.4477 12.944 28.1331 15.1011 28.9198 17.3682C30.5183 21.9615 28.8605 23.4588 28.4122 23.9156C28.3443 23.9918 28.3698 24.0002 28.3698 24.0002C29.0128 23.5349 29.5287 23.0697 29.9601 22.6129C31.0428 21.5217 31.6858 20.3289 31.8636 19.0516Z" fill="url(#paint1_linear_1955_6514)"/>
<path d="M29.8163 10.6768L29.2918 10.5076C27.7016 9.99164 27.4225 9.86472 25.8491 9.16262C25.502 9.01035 25.113 8.83272 24.631 8.62124C24.0641 8.37593 23.2012 8.03754 22.1605 8.0037C20.562 7.9445 19.0306 8.59584 17.6013 9.9324L17.6264 9.92396C17.2629 10.2454 16.8908 10.6176 16.51 11.049C16.51 11.049 16.5182 11.0744 16.603 11.0067C17.102 10.6007 18.7347 9.07803 23.1757 11.0744C25.3584 12.0557 27.4562 12.9269 27.4562 12.9269L29.8163 10.6768Z" fill="#FED9A0"/>
</g>
<defs>
<linearGradient id="paint0_linear_1955_6514" x1="20" y1="-19" x2="20" y2="45" gradientUnits="userSpaceOnUse">
<stop offset="0.291049" stop-color="#D5164B"/>
<stop offset="0.916632" stop-color="#951542"/>
</linearGradient>
<linearGradient id="paint1_linear_1955_6514" x1="37.8789" y1="30.888" x2="21.0454" y2="7.9891" gradientUnits="userSpaceOnUse">
<stop offset="0.1805" stop-color="#FED9A0"/>
<stop offset="0.3124" stop-color="#ECC890"/>
<stop offset="0.5738" stop-color="#BF9A66"/>
<stop offset="0.7464" stop-color="#9E7947"/>
</linearGradient>
<clipPath id="clip0_1955_6514">
<rect width="40" height="40" rx="8" fill="white"/>
</clipPath>
<clipPath id="clip1_1955_6514">
<rect width="40" height="40" rx="4" fill="white"/>
</clipPath>
</defs>
</svg>
