<svg width="40" height="40" viewBox="0 0 40 40" fill="none" xmlns="http://www.w3.org/2000/svg">
<g clip-path="url(#clip0_1955_6593)">
<g clip-path="url(#clip1_1955_6593)">
<path fill-rule="evenodd" clip-rule="evenodd" d="M0 -19H40V24.0354C38.3039 24.2781 37 25.7368 37 27.5C37 29.2632 38.3039 30.7219 40 30.9646V45H0V30.9646C1.69615 30.7219 3 29.2632 3 27.5C3 25.7368 1.69615 24.2781 0 24.0354V-19Z" fill="url(#paint0_linear_1955_6593)"/>
</g>
<path d="M13.0636 23.6126L18.9912 13.6126C19.0886 13.4526 19.1521 13.3853 19.2495 13.3853C19.3468 13.3853 19.4146 13.4695 19.495 13.5958C20.2289 14.8257 20.6178 16.2288 20.6213 17.6589C20.6213 21.4104 17.6575 23.9999 13.3896 23.9999C13.3091 23.9999 13 23.9999 13 23.8063C12.9988 23.7365 13.0212 23.6683 13.0636 23.6126Z" fill="#FF6300"/>
<path d="M26.6464 14.3579L31.8373 23.5788C31.9685 23.8062 31.8881 23.9999 31.5621 23.9999C27.7515 23.9999 25.9817 22.5767 24.5505 20.0336L20.5494 12.9179C20.3568 12.634 20.2442 12.3039 20.2234 11.9621C20.2644 11.5404 20.4099 11.1353 20.6468 10.7831L21.1506 9.89473C21.8662 8.58105 22.6453 8 24.4828 8H25.7869C25.9817 8 25.9986 8.14737 25.9012 8.25684C25.4491 8.79601 25.2165 9.484 25.2492 10.1852C25.2492 11.1537 25.6091 12.4968 26.6464 14.3579Z" fill="#FF6300"/>
</g>
<defs>
<linearGradient id="paint0_linear_1955_6593" x1="20" y1="-19" x2="20" y2="45" gradientUnits="userSpaceOnUse">
<stop offset="0.291049" stop-color="#3C109E"/>
<stop offset="0.916632" stop-color="#9B41D3"/>
</linearGradient>
<clipPath id="clip0_1955_6593">
<rect width="40" height="40" rx="8" fill="white"/>
</clipPath>
<clipPath id="clip1_1955_6593">
<rect width="40" height="40" rx="4" fill="white"/>
</clipPath>
</defs>
</svg>
