<svg width="40" height="40" viewBox="0 0 40 40" fill="none" xmlns="http://www.w3.org/2000/svg">
<g clip-path="url(#clip0_1955_6698)">
<g clip-path="url(#clip1_1955_6698)">
<path fill-rule="evenodd" clip-rule="evenodd" d="M0 -19H40V24.0354C38.3039 24.2781 37 25.7368 37 27.5C37 29.2632 38.3039 30.7219 40 30.9646V45H0V30.9646C1.69615 30.7219 3 29.2632 3 27.5C3 25.7368 1.69615 24.2781 0 24.0354V-19Z" fill="url(#paint0_linear_1955_6698)"/>
<path fill-rule="evenodd" clip-rule="evenodd" d="M0 -19H40V24.0354C38.3039 24.2781 37 25.7368 37 27.5C37 29.2632 38.3039 30.7219 40 30.9646V45H0V30.9646C1.69615 30.7219 3 29.2632 3 27.5C3 25.7368 1.69615 24.2781 0 24.0354V-19Z" fill="#CF2538"/>
</g>
<path fill-rule="evenodd" clip-rule="evenodd" d="M26.9763 8.13826C26.8889 8.21591 26.7995 8.27995 26.7776 8.28065C26.7558 8.28132 26.7379 8.29483 26.7379 8.31069C26.7379 8.32655 26.4881 8.54084 26.1828 8.78685C25.5462 9.29975 25.5236 9.31805 25.3905 9.42873C25.3362 9.47389 24.8412 9.87516 24.2905 10.3205C23.7399 10.7658 22.8307 11.5012 22.2702 11.9547C20.8597 13.0961 20.9732 13.0098 21.0014 12.9187C21.1609 12.4037 21.5474 11.6924 21.9474 11.1779C22.102 10.9791 22.1048 10.9716 22.0854 10.8071C22.0626 10.6127 22.0386 10.5385 21.9985 10.5385C21.9828 10.5385 21.8599 10.6308 21.7254 10.7436C21.3137 11.0886 21.104 11.1731 20.4993 11.2377C20.3207 11.2569 20.1506 11.2796 20.1214 11.2883C20.0637 11.3054 19.9341 11.4616 19.3326 12.239C18.5642 13.232 18.0468 13.7969 17.7365 13.9814C17.4723 14.1386 16.7168 14.3719 15.9692 14.5273L15.8641 14.5492L15.9941 14.2907C16.9004 12.488 18.568 10.5637 20.2776 9.34736C20.4218 9.24479 20.5341 9.15529 20.5272 9.14842C20.5098 9.13107 20.1211 9.32915 19.6535 9.59356C18.0345 10.5092 16.4616 11.8716 15.3701 13.3037C15.0373 13.7405 14.8199 14.0604 14.5493 14.5115C14.4707 14.6426 14.3945 14.768 14.38 14.7902C14.3517 14.8333 14.0131 14.9013 13.1502 15.0371C12.853 15.0839 12.6056 15.1262 12.6003 15.1311C12.575 15.1544 12.997 15.9444 13.0425 15.9588C13.0712 15.9679 13.193 15.9606 13.3132 15.9425C13.4333 15.9245 13.596 15.9062 13.6747 15.9019C13.8273 15.8936 13.8415 15.9201 13.7727 16.0848C13.6863 16.2915 13.6604 16.3619 13.5914 16.5775C13.4597 16.9889 13.2932 17.7337 13.2932 17.9117C13.2932 17.962 13.2734 18.0231 13.2492 18.0473C13.225 18.0715 13.0426 18.1243 12.8439 18.1646C12.4347 18.2475 12.3564 18.2848 12.3262 18.4112C12.3145 18.4603 12.2683 18.5978 12.2235 18.7168C12.1787 18.8358 12.1494 18.9405 12.1584 18.9495C12.1674 18.9585 12.4052 18.9269 12.6868 18.8793C12.9685 18.8318 13.2084 18.8023 13.2199 18.8138C13.2314 18.8253 13.2524 19.0073 13.2667 19.2183C13.2809 19.4293 13.2993 19.6128 13.3074 19.626C13.3156 19.6393 13.3453 19.7612 13.3733 19.8971L13.4243 20.144L13.2225 20.3552C13.1116 20.4714 12.9846 20.6136 12.9404 20.6712C12.8682 20.7655 12.8331 20.7808 12.592 20.8224C11.4146 21.0258 9.77507 21.7874 8.40168 22.7689C7.8342 23.1744 7 23.8226 7 23.8581C7 23.9022 7.04783 23.9176 7.29032 23.9517C7.41907 23.9698 7.5463 23.9914 7.57303 23.9997C7.59977 24.008 7.92873 23.8341 8.30407 23.6132C9.05064 23.1738 9.16103 23.1121 9.70164 22.8318C10.5219 22.4067 11.1105 22.2094 12.6576 21.841C12.8411 21.7973 13.2325 21.7036 13.5273 21.6328C13.8221 21.562 14.0742 21.504 14.0876 21.504C14.101 21.504 14.2334 21.6233 14.3817 21.769C14.6619 22.0442 15.058 22.3465 15.3592 22.5153C15.8179 22.7722 16.5103 22.9859 17.1868 23.0793C17.7164 23.1524 18.8951 23.1278 19.4435 23.0321C20.6342 22.8243 21.608 22.4962 22.7967 21.9022C23.4792 21.5612 24.4872 20.9403 24.9103 20.6004C24.9802 20.5442 25.1376 20.4215 25.2599 20.3276C26.4515 19.4138 27.7457 17.9695 28.487 16.7263C28.5477 16.6246 28.6187 16.5223 28.6449 16.4991C28.6966 16.4533 29.2903 16.3702 29.813 16.3357L30.1388 16.3141V16.4465C30.1388 16.5818 30.0079 16.9127 29.8877 17.0816L29.824 17.1711L29.4967 17.1586L29.1694 17.1461L28.8236 17.4737L28.4779 17.8015L28.5354 17.9841C28.5671 18.0845 28.6093 18.1667 28.6293 18.1667C28.6682 18.1667 29.2741 17.9408 29.821 17.7224C30.812 17.3266 31.8599 16.8336 32.3219 16.5458C32.4651 16.4566 32.6689 16.3001 32.7749 16.198C32.9394 16.0395 32.9676 15.9959 32.9676 15.8998C32.9676 15.7581 32.8781 15.6892 32.5516 15.5799C32.1596 15.4485 31.3954 15.3647 30.0439 15.3046C29.6159 15.2856 29.2621 15.2664 29.2576 15.2619C29.2531 15.2575 29.3127 15.0689 29.39 14.8429C29.6509 14.0797 29.7606 13.5657 29.8264 12.7964C29.8533 12.4816 29.854 12.2851 29.8289 12.0642C29.81 11.8981 29.8063 11.7499 29.8208 11.7349C29.8506 11.7038 30.2518 11.5784 31.6292 11.1697C32.2731 10.9786 32.6023 10.8946 32.6165 10.9176C32.6282 10.9365 32.6252 11.0602 32.6098 11.1925C32.5309 11.8707 31.9037 12.8484 30.922 13.8236C30.455 14.2875 30.4629 14.3033 30.9881 13.9553C31.4225 13.6674 31.4232 13.6668 31.7598 13.3966C32.3294 12.9392 32.8738 12.2978 33.0929 11.8258C33.2179 11.5567 33.2908 11.267 33.3124 10.9541L33.3331 10.6545L33.7287 10.5339C33.9463 10.4676 34.1296 10.4186 34.1361 10.4251C34.1426 10.4316 34.1255 10.5124 34.0981 10.6047C34.0089 10.9051 34.0218 10.9088 34.3263 10.6707C34.4793 10.5511 34.7332 10.3759 34.8905 10.2814L35.1766 10.1094L34.7634 10.0855C34.5361 10.0724 34.2291 10.0409 34.0811 10.0156C33.9331 9.99025 33.8056 9.97595 33.7978 9.98377C33.79 9.99162 33.8674 10.0754 33.9698 10.17L34.1561 10.342L34.0307 10.3756C33.6791 10.4697 33.3442 10.5393 33.3187 10.5236C33.303 10.5138 33.2731 10.4524 33.2524 10.3871C33.1629 10.1046 32.8807 9.74641 32.5862 9.54156C31.9453 9.09582 30.9421 8.86685 29.5031 8.83789L28.7562 8.82286L29.2457 8.90384C30.2482 9.06966 31.1839 9.36153 31.7209 9.67594C32.0202 9.8511 32.3376 10.1496 32.4763 10.3862C32.6669 10.7115 32.6849 10.6954 31.9425 10.8653C31.5885 10.9463 30.9504 11.0926 30.5245 11.1904C30.0986 11.2882 29.7466 11.3639 29.7423 11.3586C29.738 11.3533 29.6829 11.1878 29.6199 10.9908C29.4041 10.3155 29.1107 9.82552 28.6451 9.36252C28.2913 9.01073 27.8265 8.68701 27.4275 8.51458C27.1828 8.40887 27.1504 8.38567 27.1691 8.32982C27.1809 8.2947 27.1975 8.2052 27.2058 8.13089C27.2257 7.95445 27.1816 7.95588 26.9763 8.13826ZM27.1704 8.63803C27.5048 8.94621 27.8539 9.51559 28.0337 10.0459C28.1834 10.4874 28.2953 11.1465 28.2953 11.5872V11.7031L27.8583 11.8032C27.1841 11.9575 24.3552 12.6125 23.2734 12.8648C22.5055 13.0439 22.238 13.0935 21.9862 13.1034L21.6683 13.1159L21.8749 12.9192C21.9886 12.8111 22.196 12.6256 22.3358 12.5071C22.4757 12.3886 22.633 12.2538 22.6854 12.2075C22.7379 12.1612 22.8165 12.0918 22.8602 12.0534C23 11.9304 23.6233 11.3888 23.9059 11.1447C24.0562 11.0149 24.3995 10.7145 24.6686 10.4773C24.9377 10.24 25.2021 10.0101 25.2561 9.96642C25.3101 9.92271 25.7098 9.57585 26.1443 9.19565C26.5788 8.81545 26.9548 8.50435 26.9799 8.50435C27.0049 8.50435 27.0906 8.56452 27.1704 8.63803ZM28.2519 12.4535C28.2405 12.5977 28.2179 12.7801 28.2017 12.8588C28.1855 12.9374 28.158 13.0733 28.1406 13.1607C28.0444 13.6441 27.8117 14.4719 27.694 14.7499C27.6792 14.7849 27.6272 14.9121 27.5784 15.0326L27.4897 15.2517L26.9983 15.2298C26.728 15.2177 26.3908 15.1875 26.2489 15.1625C25.8303 15.089 24.8888 14.7594 24.227 14.4547C24.1133 14.4024 23.9131 14.3102 23.782 14.2498C23.3751 14.0623 22.9238 13.8333 22.9238 13.8144C22.9238 13.8045 23.1706 13.7227 23.4721 13.6327C23.7737 13.5426 24.4208 13.3471 24.9103 13.1983C25.3998 13.0494 26.258 12.7907 26.8174 12.6233C27.3768 12.4559 27.9203 12.291 28.0252 12.2569C28.13 12.2227 28.2286 12.1939 28.2443 12.193C28.2604 12.192 28.2637 12.3049 28.2519 12.4535ZM18.4582 14.8477C18.8746 15.1191 19.3279 15.3235 19.7261 15.4193C19.9198 15.4659 21.6179 15.6543 21.859 15.6559C22.0812 15.6574 22.0904 15.6822 21.971 15.9561C21.9129 16.0893 21.8556 16.2043 21.8437 16.2117C21.8161 16.2287 21.2821 16.3464 18.8872 16.8635C17.8296 17.0919 16.4952 17.3801 15.922 17.5041C15.3487 17.6281 14.8749 17.7242 14.8691 17.7177C14.8447 17.6901 14.9764 16.9874 15.0738 16.6252C15.1676 16.2769 15.3133 15.8527 15.3759 15.746C15.3979 15.7087 15.5181 15.6738 15.7883 15.6262C16.6373 15.477 17.2274 15.3138 17.5841 15.1298C17.6628 15.0892 17.8272 14.9773 17.9496 14.8812C18.072 14.7851 18.1864 14.7056 18.2039 14.7045C18.2214 14.7035 18.3358 14.7679 18.4582 14.8477ZM26.6354 16.9033C26.4979 17.147 26.4703 17.19 26.2233 17.5451C25.4154 18.707 24.4417 19.7665 23.4466 20.5669C22.1864 21.5805 20.8664 22.2637 19.6183 22.5482C19.1045 22.6654 18.8291 22.6895 18.217 22.6713C17.5593 22.6517 17.2628 22.5904 16.8063 22.3796C16.1615 22.0817 15.6047 21.5612 15.2971 20.9687C15.2487 20.8755 15.2954 20.821 15.6737 20.5282C16.0804 20.2135 16.8007 19.7956 17.3453 19.5586C17.9698 19.2868 18.1155 19.2271 18.5853 19.0508C19.8287 18.5843 21.0802 18.2078 24.0204 17.4159C24.8987 17.1794 26.3211 16.8312 26.579 16.7897C26.6227 16.7826 26.6704 16.7749 26.685 16.7725C26.6996 16.7701 26.6773 16.829 26.6354 16.9033ZM15.1371 18.572C15.1222 18.62 15.0864 18.7361 15.0575 18.8299C15.0099 18.9844 14.8833 19.152 14.8142 19.152C14.7993 19.152 14.7871 19.0099 14.7871 18.8362V18.5204L14.8904 18.5075C15.1575 18.4744 15.1665 18.4767 15.1371 18.572Z" fill="white"/>
</g>
<defs>
<linearGradient id="paint0_linear_1955_6698" x1="20" y1="-19" x2="20" y2="45" gradientUnits="userSpaceOnUse">
<stop offset="0.291049" stop-color="#D5164B"/>
<stop offset="0.916632" stop-color="#951542"/>
</linearGradient>
<clipPath id="clip0_1955_6698">
<rect width="40" height="40" rx="8" fill="white"/>
</clipPath>
<clipPath id="clip1_1955_6698">
<rect width="40" height="40" rx="4" fill="white"/>
</clipPath>
</defs>
</svg>
