<svg width="40" height="40" viewBox="0 0 40 40" fill="none" xmlns="http://www.w3.org/2000/svg">
<g clip-path="url(#clip0_1979_6796)">
<g clip-path="url(#clip1_1979_6796)">
<path fill-rule="evenodd" clip-rule="evenodd" d="M0 -19H40V24.0354C38.3039 24.2781 37 25.7368 37 27.5C37 29.2632 38.3039 30.7219 40 30.9646V45H0V30.9646C1.69615 30.7219 3 29.2632 3 27.5C3 25.7368 1.69615 24.2781 0 24.0354V-19Z" fill="#000099"/>
</g>
<path d="M25.1869 17.6144C25.5777 17.6144 25.8847 17.3074 25.8847 16.9167C25.8847 16.526 25.5777 16.219 25.1869 16.219C24.7962 16.219 24.4892 16.526 24.4892 16.9167C24.4892 17.3074 24.8102 17.6144 25.1869 17.6144Z" fill="white"/>
<path d="M23.1077 15.5212C23.4985 15.5212 23.8055 15.2142 23.8055 14.8235C23.8055 14.4467 23.4985 14.1258 23.1077 14.1258C22.717 14.1258 22.41 14.4328 22.41 14.8235C22.41 15.2142 22.717 15.5212 23.1077 15.5212Z" fill="white"/>
<path d="M25.1869 15.5212C25.5777 15.5212 25.8847 15.2142 25.8847 14.8235C25.8847 14.4467 25.5777 14.1258 25.1869 14.1258C24.7962 14.1258 24.4892 14.4328 24.4892 14.8235C24.4892 15.2142 24.8102 15.5212 25.1869 15.5212Z" fill="white"/>
<path d="M21.0146 15.5212C21.4053 15.5212 21.7123 15.2142 21.7123 14.8235C21.7123 14.4467 21.4053 14.1258 21.0146 14.1258C20.6238 14.1258 20.3168 14.4328 20.3168 14.8235C20.3168 15.2142 20.6378 15.5212 21.0146 15.5212Z" fill="white"/>
<path d="M27.0708 13.5816C27.3359 13.3025 27.3359 12.8559 27.0708 12.5908C26.7917 12.3257 26.3591 12.3257 26.094 12.5908C25.8288 12.8699 25.8288 13.3164 26.094 13.5816C26.3591 13.8467 26.8057 13.8467 27.0708 13.5816Z" fill="white"/>
<path d="M28.8011 12.2001C29.0663 11.921 29.0663 11.4745 28.8011 11.2093C28.536 10.9302 28.0895 10.9302 27.8243 11.2093C27.5592 11.4884 27.5592 11.9349 27.8243 12.2001C28.0895 12.4652 28.536 12.4652 28.8011 12.2001Z" fill="white"/>
<path d="M18.5865 15.5212C18.9772 15.5212 19.2842 15.2142 19.2842 14.8235C19.2842 14.4467 18.9772 14.1258 18.5865 14.1258C18.1958 14.1258 17.8888 14.4328 17.8888 14.8235C17.8888 15.2142 18.2097 15.5212 18.5865 15.5212Z" fill="white"/>
<path d="M16.5073 15.5212C16.898 15.5212 17.205 15.2142 17.205 14.8235C17.205 14.4467 16.898 14.1258 16.5073 14.1258C16.1166 14.1258 15.8096 14.4328 15.8096 14.8235C15.8096 15.2142 16.1166 15.5212 16.5073 15.5212Z" fill="white"/>
<path d="M25.8847 19.0099C25.8847 18.6191 25.5637 18.3121 25.1869 18.3121C24.8102 18.3121 24.4892 18.6191 24.4892 19.0099C24.4892 19.4006 24.8102 19.7076 25.1869 19.7076C25.5777 19.7076 25.8847 19.4006 25.8847 19.0099Z" fill="white"/>
<path d="M16.8561 25.9592C17.2469 25.9592 17.5539 25.6522 17.5539 25.2614C17.5539 24.8847 17.2469 24.5777 16.8561 24.5637C16.4654 24.5637 16.1584 24.8707 16.1584 25.2614C16.1584 25.6522 16.4794 25.9592 16.8561 25.9592Z" fill="white"/>
<path d="M14.7769 23.88C15.1677 23.88 15.4747 23.573 15.4747 23.1822C15.4747 22.7915 15.1677 22.4845 14.7769 22.4845C14.3862 22.4845 14.0792 22.7915 14.0792 23.1822C14.0792 23.573 14.4002 23.88 14.7769 23.88Z" fill="white"/>
<path d="M16.8561 23.88C17.2469 23.88 17.5539 23.573 17.5539 23.1822C17.5539 22.7915 17.2469 22.4845 16.8561 22.4845C16.4654 22.4845 16.1584 22.7915 16.1584 23.1822C16.1584 23.573 16.4794 23.88 16.8561 23.88Z" fill="white"/>
<path d="M12.6977 23.88C13.0884 23.88 13.3954 23.573 13.3954 23.1822C13.3954 22.7915 13.0745 22.4845 12.6977 22.4845C12.307 22.4845 12 22.7915 12 23.1822C12 23.573 12.321 23.88 12.6977 23.88Z" fill="white"/>
<path d="M17.5539 27.3546C17.5539 26.9639 17.2329 26.6569 16.8561 26.6569C16.4794 26.6569 16.1724 26.9778 16.1584 27.3546C16.1584 27.7453 16.4794 28.0523 16.8561 28.0523C17.2469 28.0523 17.5539 27.7453 17.5539 27.3546Z" fill="white"/>
<path d="M25.8847 21.0891C25.8847 20.6983 25.5637 20.3913 25.1869 20.3913C24.8102 20.3913 24.4892 20.7123 24.4892 21.0891C24.4892 21.4798 24.8102 21.7868 25.1869 21.7868C25.5777 21.7868 25.8847 21.4798 25.8847 21.0891Z" fill="white"/>
<path d="M25.8847 23.5311C25.8847 23.1404 25.5637 22.8334 25.1869 22.8334C24.8102 22.8334 24.4892 23.1404 24.4892 23.5311C24.4892 23.9218 24.8102 24.2288 25.1869 24.2288C25.5777 24.2288 25.8847 23.9218 25.8847 23.5311Z" fill="white"/>
<path d="M19.9819 20.7402C20.3727 20.7402 20.6797 20.4332 20.6797 20.0425C20.6797 19.6657 20.3727 19.3587 19.9819 19.3448C19.5912 19.3448 19.2842 19.6518 19.2842 20.0425C19.2842 20.4332 19.6052 20.7402 19.9819 20.7402Z" fill="white"/>
<path d="M21.8658 18.8005C22.1309 18.5214 22.1309 18.0749 21.8658 17.8098C21.5867 17.5446 21.1541 17.5446 20.889 17.8098C20.6238 18.0889 20.6238 18.5354 20.889 18.8005C21.1541 19.0657 21.6007 19.0657 21.8658 18.8005Z" fill="white"/>
<path d="M23.5961 17.419C23.8613 17.14 23.8613 16.6934 23.5961 16.4283C23.331 16.1492 22.8845 16.1492 22.6193 16.4283C22.3542 16.7074 22.3542 17.1539 22.6193 17.419C22.8845 17.6842 23.331 17.6842 23.5961 17.419Z" fill="white"/>
<path d="M19.0889 21.9403C19.354 21.6612 19.354 21.2147 19.0889 20.9495C18.8098 20.6704 18.3772 20.6704 18.112 20.9495C17.8469 21.2286 17.8469 21.6751 18.112 21.9403C18.3772 22.2054 18.8237 22.2054 19.0889 21.9403Z" fill="white"/>
</g>
<defs>
<clipPath id="clip0_1979_6796">
<rect width="40" height="40" rx="8" fill="white"/>
</clipPath>
<clipPath id="clip1_1979_6796">
<rect width="40" height="40" rx="4" fill="white"/>
</clipPath>
</defs>
</svg>
