<svg width="40" height="40" viewBox="0 0 40 40" fill="none" xmlns="http://www.w3.org/2000/svg">
<g clip-path="url(#clip0_1955_6670)">
<g clip-path="url(#clip1_1955_6670)">
<path fill-rule="evenodd" clip-rule="evenodd" d="M0 -19H40V24.0354C38.3039 24.2781 37 25.7368 37 27.5C37 29.2632 38.3039 30.7219 40 30.9646V45H0V30.9646C1.69615 30.7219 3 29.2632 3 27.5C3 25.7368 1.69615 24.2781 0 24.0354V-19Z" fill="#440B33"/>
</g>
<g clip-path="url(#clip2_1955_6670)">
<path d="M14.44 15.1807C14.3703 15.4192 14.2012 15.7976 13.9076 16.4557L13.5698 17.2061C13.6103 17.2003 13.6515 17.1888 13.7007 17.1888C13.7473 17.1888 13.8029 17.2003 13.8405 17.2061C13.8868 17.0403 13.98 16.7986 14.073 16.5748C14.1895 16.5687 14.3062 16.5631 14.4224 16.5631C14.5477 16.5631 14.67 16.5687 14.7955 16.5748L14.9172 16.8834L15.0397 17.2061C15.0922 17.2032 15.1737 17.1888 15.255 17.1888C15.3365 17.1888 15.4385 17.2032 15.4822 17.2061C15.3511 16.9238 15.1588 16.4841 15.0484 16.231C14.9435 15.9868 14.7688 15.5795 14.6293 15.1807C14.5973 15.1894 14.5681 15.1954 14.5363 15.1954C14.5014 15.1954 14.472 15.1894 14.44 15.1807ZM21.6498 15.1807C21.5801 15.4192 21.411 15.7976 21.1171 16.4557L20.7796 17.2061C20.8207 17.2003 20.861 17.1888 20.9105 17.1888C20.9571 17.1888 21.0124 17.2003 21.0506 17.2061C21.0969 17.0403 21.1904 16.7986 21.2833 16.5748C21.3996 16.5687 21.516 16.5631 21.6322 16.5631C21.7575 16.5631 21.8795 16.5687 22.0048 16.5748L22.127 16.8834L22.2493 17.2061C22.302 17.2032 22.3835 17.1888 22.4648 17.1888C22.5464 17.1888 22.6483 17.2032 22.6917 17.2061C22.5609 16.9238 22.3686 16.4841 22.2579 16.231C22.153 15.9868 21.9787 15.5795 21.8391 15.1807C21.8071 15.1894 21.7779 15.1954 21.7458 15.1954C21.7112 15.1954 21.6818 15.1894 21.6498 15.1807ZM24.9895 15.1865C24.4625 15.1865 24.3112 15.5124 24.3112 15.7682C24.3112 16.01 24.3959 16.1586 24.6779 16.2836C24.7591 16.3185 24.8965 16.3706 24.9778 16.4058C25.0331 16.4288 25.2167 16.5101 25.2167 16.7402C25.2167 16.95 25.0647 17.1044 24.8352 17.1044C24.6633 17.1044 24.5178 17.0608 24.3841 16.7698H24.3432C24.3289 16.9093 24.3259 16.9471 24.2764 17.0983C24.3812 17.1508 24.5705 17.247 24.8204 17.247C25.3532 17.247 25.5597 16.9068 25.5597 16.6096C25.5597 16.5281 25.5395 16.3562 25.4174 16.2254C25.3329 16.1322 25.2455 16.1003 25.0215 16.0129C24.7657 15.9139 24.6169 15.8555 24.6169 15.6432C24.6169 15.4716 24.7304 15.3288 24.9602 15.3288C25.1435 15.3288 25.2983 15.4164 25.3417 15.5822H25.3823C25.4086 15.4718 25.4143 15.4484 25.4726 15.3057C25.3298 15.2419 25.2018 15.1865 24.9895 15.1865ZM15.708 15.2096C15.7371 15.4916 15.7372 15.6985 15.7372 15.8821C15.7372 16.3796 15.7373 16.86 15.7052 17.2061C15.7696 17.2035 15.8508 17.1888 15.9146 17.1888C15.9816 17.1888 16.0514 17.2035 16.1184 17.2061C16.0951 16.9704 16.0895 16.6561 16.0895 16.2226C16.0895 15.9284 16.0895 15.4252 16.1215 15.2096C16.0516 15.2184 15.979 15.2274 15.9146 15.2274C15.8712 15.2274 15.7631 15.2157 15.708 15.2096ZM16.6127 15.2096C16.6328 15.5851 16.6327 15.6258 16.6327 16.0071C16.6327 16.5684 16.6298 16.6328 16.6068 17.2061C16.6709 17.1976 16.7409 17.1888 16.8073 17.1888C16.8804 17.1888 16.9442 17.2003 17.0025 17.2061C17.0025 17.1306 16.9908 16.7551 16.9908 16.6706V16.2574H17.0607C17.218 16.4785 17.398 16.7345 17.5466 16.9647C17.5903 17.0314 17.6544 17.1394 17.6981 17.2061C17.7855 17.1944 17.8206 17.1888 17.9342 17.1888C18.0388 17.1888 18.1116 17.1976 18.1929 17.2061C18.0096 16.9765 17.9307 16.8745 17.7011 16.5515C17.6574 16.4903 17.5934 16.394 17.5497 16.3332L17.4681 16.2168C17.7332 16.1672 17.9746 16.001 17.9746 15.6782C17.9746 15.5559 17.928 15.4367 17.8409 15.3522C17.7159 15.233 17.573 15.2096 17.384 15.2096C17.317 15.2096 16.9791 15.2241 16.9037 15.2241C16.7551 15.2241 16.6794 15.2157 16.6127 15.2096ZM18.1372 15.2096C18.2566 15.5239 18.3581 15.803 18.4371 16.0244C18.5711 16.4028 18.6582 16.6651 18.7631 16.9847L18.8355 17.2061C18.8763 17.1976 18.9226 17.1888 18.955 17.1888C18.987 17.1888 19.0163 17.1944 19.0655 17.2061C19.1121 17.0549 19.1676 16.8686 19.2086 16.7491C19.3217 16.4173 19.3363 16.3709 19.4849 15.9578L19.572 15.7164C19.6041 15.8093 19.6594 15.9579 19.6912 16.0508C19.7232 16.1411 19.8717 16.5863 19.9067 16.6854C19.9533 16.8162 19.9649 16.8539 20.0727 17.2061C20.0989 17.2032 20.1537 17.1888 20.1977 17.1888C20.2385 17.1888 20.2704 17.1976 20.3141 17.2061C20.4248 16.86 20.4364 16.8251 20.5992 16.3593C20.7594 15.9052 20.8582 15.6463 21.0327 15.2096C20.989 15.2213 20.9459 15.2272 20.9019 15.2272C20.8465 15.2272 20.8003 15.2184 20.7682 15.2096C20.6633 15.588 20.6113 15.7716 20.5268 16.0216C20.3899 16.4288 20.3724 16.4754 20.2882 16.6968C20.195 16.4466 20.1045 16.1932 20.02 15.9375C19.9737 15.7977 19.7957 15.2157 19.7931 15.2096C19.7526 15.2184 19.7233 15.2272 19.665 15.2272C19.6132 15.2272 19.5748 15.2157 19.5372 15.2096C19.4498 15.5647 19.1411 16.4205 19.112 16.4991L19.0393 16.6882L18.9839 16.5253C18.8476 16.1206 18.6582 15.5531 18.5679 15.2096C18.4951 15.2213 18.4314 15.2272 18.3644 15.2272C18.2945 15.2272 18.1954 15.2157 18.1372 15.2096ZM22.3943 15.2096C22.5455 15.4628 22.7929 15.8644 22.9412 16.1204L23.113 16.4175C23.113 16.5981 23.1042 16.9792 23.0957 17.2061C23.1508 17.2003 23.2324 17.1888 23.2904 17.1888C23.3574 17.1888 23.4247 17.2003 23.4917 17.2061C23.4797 16.9355 23.4708 16.7783 23.4708 16.5336V16.4262C23.4708 16.4002 23.4883 16.3681 23.5087 16.3329C23.631 16.1234 23.7446 15.905 23.8757 15.6955C23.9191 15.6256 24.1316 15.2883 24.1756 15.2096C24.1432 15.2213 24.1113 15.2274 24.0533 15.2274C23.9889 15.2274 23.9306 15.2184 23.884 15.2096C23.6746 15.6696 23.6279 15.7684 23.3809 16.1934C23.1335 15.7599 23.0228 15.5301 22.8713 15.2096C22.7871 15.2242 22.7026 15.2274 22.633 15.2274C22.5689 15.2274 22.5018 15.2213 22.3943 15.2096ZM17.1977 15.3522C17.2935 15.3522 17.39 15.3669 17.4681 15.4251C17.57 15.5006 17.5903 15.6055 17.5903 15.7278C17.5903 15.9166 17.4829 16.1296 17.1919 16.1296C17.1161 16.1296 17.0462 16.1233 16.9908 16.1204V15.3669C17.0345 15.3637 17.1423 15.3522 17.1977 15.3522ZM14.4372 15.6782L14.7106 16.3941C14.6206 16.4002 14.5333 16.4058 14.443 16.4058C14.3411 16.4058 14.2423 16.397 14.1404 16.3941L14.4372 15.6782ZM21.6467 15.6782L21.9207 16.3941C21.8304 16.4002 21.7432 16.4058 21.6526 16.4058C21.5509 16.4058 21.4518 16.397 21.3502 16.3941L21.6467 15.6782Z" fill="white"/>
<path d="M16.7536 8.13379C16.5438 8.85012 16.0376 9.9852 15.1559 11.9582L14.1426 14.2109C14.2649 14.1937 14.3872 14.1585 14.5355 14.1585C14.675 14.1585 14.8415 14.1937 14.9548 14.2109C15.0944 13.713 15.3744 12.9884 15.6534 12.316C16.0024 12.2989 16.3517 12.2815 16.7009 12.2815C17.0764 12.2815 17.4431 12.2989 17.8189 12.316L18.1851 13.2419L18.5521 14.2109C18.7091 14.2021 18.9539 14.1585 19.1981 14.1585C19.443 14.1585 19.748 14.2021 19.8794 14.2109C19.4864 13.364 18.91 12.0455 18.578 11.2858C18.2636 10.5526 17.74 9.32991 17.321 8.13379C17.2249 8.1603 17.1376 8.17778 17.0418 8.17778C16.9369 8.17778 16.8494 8.1603 16.7536 8.13379ZM26.4741 8.13379C26.265 8.85012 25.7582 9.9852 24.8761 11.9582L23.8637 14.2109C23.9858 14.1937 24.1083 14.1585 24.2566 14.1585C24.3961 14.1585 24.562 14.1937 24.6759 14.2109C24.8158 13.713 25.0946 12.9884 25.374 12.316C25.723 12.2989 26.0725 12.2815 26.4221 12.2815C26.7976 12.2815 27.1643 12.2989 27.5395 12.316L27.9062 13.2419L28.2729 14.2109C28.4299 14.2021 28.6748 14.1585 28.9192 14.1585C29.1636 14.1585 29.4692 14.2021 29.6002 14.2109C29.2073 13.364 28.6309 12.0455 28.2991 11.2858C27.9847 10.5526 27.4608 9.32991 27.0419 8.13379C26.9457 8.1603 26.8584 8.17778 26.7626 8.17778C26.6577 8.17778 26.5703 8.1603 26.4741 8.13379ZM10.2616 8.15161C8.49831 8.15161 6.979 9.12931 6.979 11.3471C6.979 11.8181 7.0839 12.709 7.81713 13.4513C8.57686 14.2197 9.47597 14.3331 10.2357 14.3331C10.3316 14.3331 10.4275 14.3332 10.5239 14.3248L12.5231 15.8877C12.785 15.7041 13.1956 15.4772 13.4924 15.3461L11.5193 14.1234C12.7327 13.6958 13.4924 12.6129 13.4924 11.1374C13.4924 9.04229 11.8944 8.15161 10.2616 8.15161ZM19.5185 8.2215C19.5451 8.32637 19.5623 8.43962 19.5623 8.5445C19.5623 8.64937 19.5451 8.76263 19.5185 8.86721C19.9642 8.82381 20.8023 8.80623 20.8807 8.80623H21.3176C21.3263 9.14707 21.3348 9.45244 21.3348 9.77551L21.3438 12.2114C21.3438 12.8752 21.2916 13.5476 21.2563 14.2109C21.5706 14.1762 21.7017 14.1585 21.85 14.1585C21.9548 14.1585 22.2342 14.1849 22.4876 14.2109C22.4611 13.9668 22.4264 13.6783 22.4264 13.0149V9.78442C22.4264 9.45261 22.4349 9.12085 22.4436 8.80623C23.046 8.80623 23.6664 8.81507 24.1814 8.86721C24.1552 8.72768 24.1377 8.64926 24.1377 8.55313C24.1377 8.48321 24.1552 8.36948 24.1814 8.2215C23.3433 8.2649 22.5748 8.27357 21.85 8.27357C21.1776 8.27357 20.2084 8.2649 19.5185 8.2215ZM30.5495 8.2215C30.6103 9.3477 30.6104 9.46967 30.6104 10.6133C30.6104 12.2989 30.6015 12.4907 30.5319 14.2109C30.7239 14.1849 30.9335 14.1585 31.1342 14.1585C31.3524 14.1585 31.5447 14.1937 31.7192 14.2109C31.7192 13.9837 31.6844 12.8577 31.6844 12.6042V11.3643H31.8941C32.3654 12.0279 32.9072 12.7965 33.3523 13.4864C33.4831 13.6874 33.6751 14.0105 33.8059 14.2109C34.0681 14.1762 34.1729 14.1585 34.5131 14.1585C34.8275 14.1585 35.0459 14.1849 35.2903 14.2109C34.7403 13.5213 34.5049 13.2156 33.8148 12.2464C33.6837 12.0629 33.4917 11.7748 33.3607 11.5915L33.1165 11.2426C33.9109 11.0941 34.6357 10.5966 34.6357 9.62709C34.6357 9.26033 34.4958 8.90233 34.2336 8.64947C33.8584 8.29145 33.4305 8.2215 32.8631 8.2215C32.6621 8.2215 31.6496 8.26494 31.4224 8.26494C30.977 8.26494 30.7499 8.23869 30.5495 8.2215ZM10.2446 8.59656C11.6764 8.59656 12.2962 9.7842 12.2962 11.0502C12.2962 11.7747 12.2087 12.456 11.8507 13.0063C11.4927 13.556 10.8994 13.8879 10.253 13.8879C8.63795 13.8879 8.17493 12.3509 8.17493 11.3905C8.17493 9.19052 9.35379 8.59656 10.2446 8.59656ZM32.3042 8.64947C32.5923 8.64947 32.8802 8.69272 33.1165 8.86721C33.4218 9.09444 33.4829 9.40845 33.4829 9.77551C33.4829 10.343 33.16 10.9806 32.287 10.9806C32.0597 10.9806 31.8502 10.9626 31.6844 10.9544V8.69291C31.8152 8.68446 32.1382 8.64947 32.3042 8.64947ZM16.7449 9.6271L17.5655 11.775C17.2946 11.7928 17.0329 11.8101 16.7617 11.8101C16.4564 11.8101 16.1595 11.7838 15.8542 11.775L16.7449 9.6271ZM26.4655 9.6271L27.2864 11.775C27.0157 11.7928 26.7537 11.8101 26.483 11.8101C26.1772 11.8101 25.8806 11.7838 25.5747 11.775L26.4655 9.6271ZM33.1677 15.2091C33.0381 15.2091 33.0029 15.266 33.0029 15.3703C33.0029 15.4746 33.0491 15.5109 33.1677 15.5109C33.2874 15.5109 33.3715 15.465 33.3715 15.3703C33.3715 15.2762 33.316 15.2091 33.1677 15.2091ZM33.6288 15.2091C33.4983 15.2091 33.4637 15.266 33.4637 15.3703C33.4637 15.4746 33.5082 15.5109 33.6288 15.5109C33.7477 15.5109 33.8312 15.465 33.8312 15.3703C33.8312 15.2762 33.7756 15.2091 33.6288 15.2091ZM26.3878 15.2364C26.257 15.2364 26.2221 15.2936 26.2221 15.3976C26.2221 15.5025 26.2675 15.5391 26.3878 15.5391C26.5067 15.5391 26.5905 15.4923 26.5905 15.3976C26.5905 15.3026 26.5349 15.2364 26.3878 15.2364ZM26.8319 15.2364C26.7006 15.2364 26.666 15.2936 26.666 15.3976C26.666 15.5025 26.7113 15.5391 26.8319 15.5391C26.952 15.5391 27.033 15.4923 27.033 15.3976C27.033 15.3026 26.9782 15.2364 26.8319 15.2364ZM30.1326 15.2478C30.1326 15.2478 29.9306 15.3896 29.7823 15.5023C29.6344 15.615 29.7823 15.6908 29.7823 15.6908V16.8912H29.3588L29.3499 15.8609C29.3499 15.8609 29.0552 16.0764 28.9707 16.1419C28.8882 16.2071 28.934 16.2652 29.0264 16.2652C29.0264 16.2652 29.0094 17.0258 29.0094 17.2053C29.0094 17.3859 28.8598 17.5923 28.546 17.4985C28.546 17.4985 28.4466 17.5177 28.5293 17.5929C28.6118 17.6677 28.7112 17.7249 28.8228 17.7249C28.9338 17.7249 29.3404 17.6481 29.3404 17.2053H34.6707V15.2851C34.6707 15.2851 34.357 15.4923 34.2923 15.5485C34.2274 15.6048 34.2463 15.6723 34.3299 15.6624V16.8912H33.8699V15.7755C33.8699 15.7755 33.7757 15.8114 33.6466 15.8685C33.5187 15.9264 33.0563 16.1145 33.0563 16.3686V16.662H33.5274V16.8912H32.4095C32.4104 16.8373 32.4114 16.7579 32.4114 16.6417C32.4114 16.2755 32.0996 16.0762 31.822 16.0762H30.5294C30.3031 16.0762 30.1938 16.1311 30.1326 16.1937L30.1326 15.2478ZM35.2803 15.2862C35.2803 15.2862 34.9657 15.494 34.9019 15.5499C34.8369 15.6061 34.8559 15.6734 34.9383 15.6641V17.2075H35.2803V15.2862ZM27.1744 15.4547C27.1744 15.4547 26.7948 15.8035 26.7593 15.8498C26.7226 15.8993 26.8495 15.9442 26.8495 15.9442L26.828 16.0804C26.828 16.0804 26.6769 16.1587 26.4933 16.2828C26.311 16.4054 26.1756 16.562 26.1756 16.6704C26.1756 16.779 26.1297 17.2053 26.1297 17.2053H28.5438V16.0642C28.5438 16.0642 28.3258 16.1897 28.1877 16.3126C28.0505 16.4344 28.2158 16.4805 28.2158 16.4805V16.8912H27.1744L27.1744 15.4547ZM33.5274 16.2265V16.4153H33.3061C33.3061 16.2939 33.5274 16.2265 33.5274 16.2265ZM30.3997 16.4056H31.8122C32.1172 16.4056 32.0701 16.5661 32.0701 16.6704C32.0701 16.7263 32.0674 16.8175 32.0648 16.8912H30.1326V16.5515C30.183 16.4207 30.268 16.4056 30.3997 16.4056ZM26.8408 16.4343V16.8912H26.4819C26.4819 16.8912 26.4336 16.6702 26.5635 16.5857C26.694 16.5001 26.8408 16.4343 26.8408 16.4343ZM27.5044 17.3289C27.3745 17.3289 27.3387 17.3844 27.3387 17.489C27.3387 17.5927 27.3846 17.6307 27.5044 17.6307C27.6232 17.6307 27.7074 17.5834 27.7074 17.489C27.7074 17.3938 27.6527 17.3289 27.5044 17.3289ZM27.9658 17.3289C27.8358 17.3289 27.8004 17.3844 27.8004 17.489C27.8004 17.5927 27.8475 17.6307 27.9658 17.6307C28.0864 17.6307 28.1693 17.5834 28.1693 17.489C28.1693 17.3938 28.1146 17.3289 27.9658 17.3289Z" fill="white"/>
</g>
</g>
<defs>
<clipPath id="clip0_1955_6670">
<rect width="40" height="40" rx="8" fill="white"/>
</clipPath>
<clipPath id="clip1_1955_6670">
<rect width="40" height="40" rx="4" fill="white"/>
</clipPath>
<clipPath id="clip2_1955_6670">
<rect width="28.5714" height="10" fill="white" transform="translate(6.85718 8)"/>
</clipPath>
</defs>
</svg>
