<svg width="40" height="40" viewBox="0 0 40 40" fill="none" xmlns="http://www.w3.org/2000/svg">
<g clip-path="url(#clip0_1955_6679)">
<g clip-path="url(#clip1_1955_6679)">
<path fill-rule="evenodd" clip-rule="evenodd" d="M0 -19H40V24.0354C38.3039 24.2781 37 25.7368 37 27.5C37 29.2632 38.3039 30.7219 40 30.9646V45H0V30.9646C1.69615 30.7219 3 29.2632 3 27.5C3 25.7368 1.69615 24.2781 0 24.0354V-19Z" fill="#002569"/>
</g>
<path d="M21.2035 26.2857C21.2035 26.2857 23.8739 22.2897 24.1144 21.895C24.4092 21.4119 24.4213 20.6439 24.1573 20.2313C24.0227 20.0158 20.041 13.7081 20.041 13.7081C19.6831 13.0266 19.7718 12.5619 20.0106 12.2292C20.4034 11.6487 21.0959 10.6201 21.0959 10.6201C21.0959 10.6201 25.9292 18.2157 26.1301 18.5553C26.6494 19.422 26.5057 20.2704 26.078 20.9978C25.7195 21.6105 22.5876 26.2862 22.5876 26.2862" fill="#F99C1C"/>
<path d="M20.3434 26.7169C20.3434 26.7169 23.434 22.1851 23.6637 21.8094C23.9334 21.3505 23.9037 20.7046 23.6637 20.3151C23.5348 20.1091 19.2439 13.3436 19.2439 13.3436C19.2439 13.3436 18.4823 14.4938 18.2423 14.8493C18.0024 15.2027 17.8598 15.6439 18.2716 16.3527C18.2716 16.3527 21.345 21.2115 21.4745 21.4174C21.7248 21.8139 21.7139 22.5418 21.4344 23.0008C21.2048 23.3713 18.0357 28 18.0357 28H27.181C28.1099 28 28.6196 27.638 29.0691 26.991C29.458 26.4409 30.9623 24.2513 31.1931 23.9077C31.4205 23.5635 31.8791 23.3345 32.0842 23.3345H32.7989L31.4045 21.2092H29.1795C28.7547 21.2092 28.2409 21.5872 27.9712 21.9877C27.7599 22.3038 26.2379 24.5873 25.9646 24.9545C25.8089 25.1616 25.6754 25.2069 25.5518 25.208C25.4837 25.208 25.2865 25.2068 25.2626 25.2068C25.3531 25.0244 27.9083 21.2997 28.4111 20.4801C29.0187 19.4704 29.1562 18.1373 28.4334 16.8581C28.1696 16.3941 22.8592 8 22.8592 8C22.8592 8 22.1514 9.01937 21.857 9.45702C21.6182 9.81323 21.545 10.2797 21.8891 10.9617C21.8891 10.9617 26.3468 18.0645 26.5592 18.3897C27.0769 19.1997 27.0127 20.2822 26.5592 21.0193C26.1892 21.6273 23.109 26.2858 23.109 26.2858H25.5496C26.4338 26.2858 26.6508 25.9571 26.8947 25.6852C27.1389 25.4109 28.4662 23.3952 28.6162 23.183C28.7698 22.9725 29.1568 22.377 29.666 22.377H31.2689V22.4235C30.9275 22.4923 30.5908 22.6994 30.3469 23.0345C30.1029 23.3653 28.4925 25.7551 28.2985 26.0333C28.054 26.3844 27.7756 26.7172 27.0747 26.7172" fill="#F99C1C"/>
</g>
<defs>
<clipPath id="clip0_1955_6679">
<rect width="40" height="40" rx="8" fill="white"/>
</clipPath>
<clipPath id="clip1_1955_6679">
<rect width="40" height="40" rx="4" fill="white"/>
</clipPath>
</defs>
</svg>
